<svg xmlns="http://www.w3.org/2000/svg" viewBox="0 0 48 48">
  <path d="M43.6 24.5c0-1.5-.1-3-.4-4.5H24v8.5h11c-.5 2.5-1.9 4.6-3.9 6v5h6.3c3.7-3.4 5.8-8.4 5.8-15z" fill="#4285F4"/>
  <path d="M24 44c5.4 0 9.9-1.8 13.2-4.8l-6.3-5c-1.8 1.2-4.1 1.9-6.9 1.9-5.3 0-9.8-3.6-11.4-8.4H5.1v5.2C8.4 39.1 15.7 44 24 44z" fill="#34A853"/>
  <path d="M12.6 27.7c-.4-1.2-.6-2.4-.6-3.7s.2-2.5.6-3.7v-5.2H5.1C3.8 17.6 3 20.7 3 24s.8 6.4 2.1 8.9l7.5-5.2z" fill="#FBBC05"/>
  <path d="M24 10.9c3 0 5.7 1 7.8 3l5.8-5.8C34 4.8 29.4 3 24 3 15.7 3 8.4 7.9 5.1 15.1l7.5 5.2C14.2 14.5 18.7 10.9 24 10.9z" fill="#EA4335"/>
</svg>